<?xml version="1.0" encoding="UTF-8"?>
<svg width="62px" height="62px" viewBox="0 0 62 62" version="1.1" xmlns="http://www.w3.org/2000/svg" xmlns:xlink="http://www.w3.org/1999/xlink">
    <!-- Generator: sketchtool 53.2 (72643) - https://sketchapp.com -->
    <title>4947849D-014F-445D-A491-0DE71D28B967@1.00x</title>
    <desc>Created with sketchtool.</desc>
    <g id="Dashboard-x_2" stroke="none" stroke-width="1" fill="none" fill-rule="evenodd">
        <g id="Icons" transform="translate(-56.000000, -386.000000)">
            <g id="WidgetIcon/Blog" transform="translate(57.000000, 387.000000)">
                <circle id="Oval" stroke="#DFE5EB" stroke-width="1" fill="#FFFFFF" fill-rule="evenodd" cx="30" cy="30" r="30"></circle>
                <path d="M29.0002917,25.0509562 L17.2452814,31.4436898 C17.2452814,31.4436898 15.2368651,39.3243615 12,44.3491521 L15.6283488,47.9985001 C20.5991417,44.7991334 28.5338111,42.7322195 28.5338111,42.7322195 L34.9280447,30.9772093 L29.0002917,25.0509562 Z M26.5043957,40.1868255 C24.6429732,40.7343027 21.0446231,41.8832549 17.6322653,43.4971876 L20.3411525,40.7883005 C20.8631307,40.2648223 21.5411025,39.934836 22.273072,39.8433399 C23.2435315,39.7218449 23.9425024,38.8983792 23.9425024,37.9489188 C23.9425024,36.8944627 23.089038,36.0364985 22.0300821,36.0364985 C21.0746219,36.0364985 20.255656,36.742969 20.135661,37.7059289 C20.0456648,38.4363985 19.7141786,39.1158702 19.1922003,39.6378484 L16.5238115,42.3062372 C18.1317445,38.8953794 19.2611975,35.328528 19.799675,33.4701054 L28.4663139,28.7558018 L31.223199,31.511187 L26.5043957,40.1868255 L26.5043957,40.1868255 Z M30.0217491,21.8095913 C30.0217491,21.8095913 33.2436148,15.8563393 35.2340319,12 L48,24.7659681 C44.1271614,26.7473855 38.1664097,29.9542519 38.1664097,29.9542519 L30.0217491,21.8095913 L30.0217491,21.8095913 Z" id="Shape" fill="#3899EC" fill-rule="nonzero"></path>
            </g>
        </g>
    </g>
</svg>