<?xml version="1.0" encoding="UTF-8"?>
<svg width="62px" height="62px" viewBox="0 0 62 62" version="1.1" xmlns="http://www.w3.org/2000/svg" xmlns:xlink="http://www.w3.org/1999/xlink">
    <!-- Generator: sketchtool 53.2 (72643) - https://sketchapp.com -->
    <title>22229270-C85F-462C-B4D1-0382917C540D@1.00x</title>
    <desc>Created with sketchtool.</desc>
    <g id="Dashboard-x_2" stroke="none" stroke-width="1" fill="none" fill-rule="evenodd">
        <g id="Icons" transform="translate(-509.000000, -386.000000)">
            <g id="WidgetIcon/Bookings" transform="translate(510.000000, 387.000000)">
                <circle id="Oval" stroke="#DFE5EB" stroke-width="1" fill="#FFFFFF" fill-rule="evenodd" cx="30" cy="30" r="30"></circle>
                <path d="M42,42 L36,42 L36,36 L42,36 L42,42 Z M33,27 L27,27 L27,33 L33,33 L33,27 Z M42,27 L36,27 L36,33 L42,33 L42,27 Z M24,36 L18,36 L18,42 L24,42 L24,36 Z M33,36 L27,36 L27,42 L33,42 L33,36 Z M24,27 L18,27 L18,33 L24,33 L24,27 Z M48,15 L48,48 L12,48 L12,15 L16.5,15 L16.5,16.5 C16.5,18.1545 17.8455,19.5 19.5,19.5 C21.1545,19.5 22.5,18.1545 22.5,16.5 L22.5,15 L37.5,15 L37.5,16.5 C37.5,18.1545 38.8455,19.5 40.5,19.5 C42.1545,19.5 43.5,18.1545 43.5,16.5 L43.5,15 L48,15 Z M45,24 L15,24 L15,45 L45,45 L45,24 Z M42,13.5 C42,12.672 41.3295,12 40.5,12 C39.6705,12 39,12.672 39,13.5 L39,16.5 C39,17.328 39.6705,18 40.5,18 C41.3295,18 42,17.328 42,16.5 L42,13.5 Z M21,16.5 C21,17.328 20.3295,18 19.5,18 C18.6705,18 18,17.328 18,16.5 L18,13.5 C18,12.672 18.6705,12 19.5,12 C20.3295,12 21,12.672 21,13.5 L21,16.5 Z" id="Shape" fill="#3899EC" fill-rule="nonzero"></path>
            </g>
        </g>
    </g>
</svg>