<?xml version="1.0" encoding="UTF-8"?>
<svg width="62px" height="62px" viewBox="0 0 62 62" version="1.1" xmlns="http://www.w3.org/2000/svg" xmlns:xlink="http://www.w3.org/1999/xlink">
    <!-- Generator: sketchtool 53.2 (72643) - https://sketchapp.com -->
    <title>B1227E96-0F97-4F3E-9771-45AE8741755E@2.00x</title>
    <desc>Created with sketchtool.</desc>
    <g id="Dashboard-x_2" stroke="none" stroke-width="1" fill="none" fill-rule="evenodd">
        <g id="Icons" transform="translate(-54.000000, -464.000000)">
            <g id="WidgetIcon/Musa" transform="translate(55.000000, 465.000000)">
                <circle id="Oval" stroke="#DFE5EB" fill="#FFFFFF" cx="30" cy="30" r="30"></circle>
                <g id="Group-10" transform="translate(8.000000, 12.000000)">
                    <path d="M38.9005392,0.263388019 C38.2457421,0.263388019 37.5926673,0.261658617 36.9385591,0.261658617 C35.3871619,0.258199812 33.9556329,1.44975822 32.8608025,2.39453087 C31.7947336,3.31457307 30.8814277,4.42969188 30.0094557,5.53685544 C29.6966962,4.67526705 29.2855967,3.82889741 28.8589969,3.05602737 C28.2997843,1.95387908 27.2030595,0.891161172 25.9752719,0.634344882 C25.3535419,0.502910283 24.6567221,0.56707112 24.0256919,0.56707112 C23.4780184,0.565341717 21.9236934,0.56707112 21.9236934,0.56707112 C21.9236934,0.56707112 20.3671295,0.565341717 19.8204893,0.56707112 C19.1884258,0.56707112 18.4935005,0.503083223 17.8709094,0.634344882 C16.6429495,0.891161172 15.5463969,1.95387908 14.9878733,3.05602737 C14.5607568,3.82889741 14.1491406,4.67526705 13.83707,5.53702838 C12.9652702,4.42969188 12.0514476,3.31474601 10.9853787,2.39453087 C9.89003169,1.44958528 8.45988046,0.258199812 6.90710547,0.261658617 C6.25316951,0.261658617 5.59906132,0.263388019 4.94512536,0.263388019 C4.01063589,0.264771542 3.07735199,0.265982123 2.14217362,0.267711526 C1.46188732,0.270824451 -0.0450759799,0.090966578 0.311428482,1.2031454 C0.397885119,1.47258633 0.702377819,1.71435682 0.874946645,1.93814152 C1.07179911,2.19478487 1.26847935,2.4535035 1.43880926,2.7288244 C1.71124694,3.16776145 1.97480428,3.61219375 2.22931915,4.06184794 C2.84192126,5.14756691 3.35824995,6.29295026 3.96654645,7.38420332 C5.30524654,9.79153177 6.73712001,12.1435193 8.46728611,14.2914374 C9.74519099,15.8755702 11.2883214,17.4752676 13.1977731,18.2614541 C11.756255,20.9517128 10.3205926,23.6459491 8.88389688,26.3382831 C7.6392313,28.6669238 6.39542685,30.9832856 5.08359376,33.2745712 C5.02055964,33.3862906 4.95494215,33.4959347 4.89586919,33.6081729 C4.72364481,33.9343383 4.47736395,34.3900359 4.4790862,34.7651433 C4.48046399,35.5091323 5.57959997,35.5312686 6.10608989,35.5347275 C6.67339699,35.5381863 7.24242633,35.5226216 7.81007788,35.5169146 C8.79692357,35.5056735 9.78376925,35.492703 10.7700983,35.4826724 C11.3542834,35.4761007 11.9479408,35.4991018 12.5295425,35.4432421 C14.0092944,35.3002205 15.3626335,34.5572691 16.2358111,33.3402885 C16.5187758,32.9444282 19.1722367,28.5745737 20.2458835,26.8091995 C20.6514719,26.1407853 21.9236934,24.1431524 21.9236934,24.1431524 C21.9236934,24.1431524 23.1941926,26.1407853 23.6006422,26.8091995 C24.6736,28.5745737 27.3275777,32.9444282 27.6103701,33.3404614 C28.4844088,34.5572691 29.8365424,35.3002205 31.3166387,35.4432421 C31.8987571,35.4991018 32.4913812,35.4761007 33.0755663,35.4826724 C34.0613786,35.492703 35.0485688,35.5056735 36.0361034,35.5169146 C36.6037549,35.5224487 37.1724398,35.5381863 37.740608,35.5347275 C38.2655479,35.5312686 39.3665784,35.5091323 39.3674395,34.7651433 C39.3696784,34.3900359 39.1240864,33.9343383 38.9494509,33.6081729 C38.8898613,33.4959347 38.8251049,33.3862906 38.762243,33.2745712 C37.4516155,30.9832856 36.2072944,28.6669238 34.9634899,26.3382831 C33.5250719,23.6459491 32.0894095,20.9517128 30.6466859,18.2614541 C32.5569987,17.4750947 34.1003014,15.8757431 35.378034,14.2914374 C37.1097501,12.1435193 38.5400736,9.79153177 39.8796348,7.38420332 C40.4870702,6.29295026 41.0033989,5.14756691 41.6173788,4.06202088 C41.8715142,3.61212287 42.135018,3.16762631 42.4077164,2.7288244 C42.5771852,2.45333056 42.7745544,2.19478487 42.9707179,1.93831446 C43.145009,1.71435682 43.447435,1.47258633 43.5350972,1.2031454 C43.8905683,0.0911395182 42.3856717,0.270824451 41.7053854,0.267711526 C40.7695182,0.265982123 39.8350287,0.264771542 38.9007114,0.263388019 L38.9005392,0.263388019 Z" id="Path" fill="#3899EC" fill-rule="nonzero"></path>
                    <path d="M25.1654729,6.45758939 C25.2654126,6.44329569 25.3649391,6.42622571 25.4639377,6.40639908 C25.601738,6.37735159 25.7371937,6.33804317 25.8691817,6.2887997 C26.2280973,6.16307213 26.4494056,5.99480125 26.6085409,5.86717134 C26.7301313,5.77395654 26.8217547,5.66829004 26.8530995,5.6032645 C25.9868109,5.61934794 25.3418306,5.61450562 24.9155753,5.58112814 C24.7996683,5.56348824 24.7151061,5.86492311 24.6593054,6.4734999 C24.6532776,6.52036671 24.9324533,6.48958334 25.1654729,6.45758939 L25.1654729,6.45758939 Z M20.7921792,10.5128656 C20.7813159,10.5253066 20.7753186,10.541284 20.7753013,10.5578301 C20.7760931,10.5770939 20.7850572,10.5950966 20.7999293,10.607291 C20.8409187,10.6432626 20.8831137,10.6806177 20.9323699,10.7110551 C21.1846786,10.8867625 21.4948547,10.9794584 21.8572148,10.9846466 C22.2261194,10.9794584 22.5185564,10.8924695 22.7848153,10.7108822 C22.830627,10.6814824 22.8779887,10.6486237 22.9232837,10.607291 C22.9560063,10.5796205 22.9711621,10.5372502 22.9473951,10.5090609 C22.9232837,10.4826011 22.8810887,10.4748187 22.8366548,10.5068127 C22.796984,10.5401622 22.7555929,10.5713922 22.7126533,10.6003734 L22.7114477,10.6003734 C22.4668891,10.766396 22.1968413,10.8456027 21.8572148,10.8511368 C21.5243051,10.8456027 21.2365181,10.7612078 21.0060819,10.6008922 C21.0060819,10.6003734 21.0052208,10.6003734 21.0040152,10.6003734 C20.9626814,10.5723571 20.9246198,10.5389796 20.8874193,10.5069856 C20.8740894,10.4949161 20.8564846,10.4887388 20.8385698,10.4898448 C20.8206549,10.4909508 20.8039363,10.4992473 20.7921792,10.5128656 L20.7921792,10.5128656 Z M24.5878323,9.93247808 C24.5843878,9.92763576 24.5812878,9.91380054 24.5795655,9.91068761 C24.5795655,9.91068761 24.5847323,9.92504165 24.5895545,9.93282396 L24.5878323,9.93247808 Z M26.6280023,7.500938 C26.5270788,7.29980847 26.4161663,7.15384689 26.296987,7.0658203 C25.9130989,6.78081474 25.3294305,6.77873946 24.9820539,7.12116118 C24.820163,7.28113092 24.7020171,7.47568872 24.6117715,7.68442761 C24.4104412,8.15655453 24.2599171,8.69215052 24.2931564,9.21235483 C24.3098622,9.44755359 24.3909798,9.69139936 24.5557986,9.86347492 C24.7529955,10.0741162 25.0373379,10.1567816 25.3116914,10.2128142 C25.5838059,10.2690198 25.9013876,10.311909 26.1559353,10.1763239 C26.4494056,10.0172188 26.5727183,9.6542172 26.6538359,9.35658701 C26.7569983,8.97335139 26.8530995,8.56348297 26.8140046,8.16278038 C26.7923043,7.94176272 26.7272035,7.70051106 26.6280023,7.50076506 L26.6280023,7.500938 Z" id="Shape" fill="#32536A" fill-rule="nonzero"></path>
                    <path d="M25.6676792,8.47147875 C25.8850263,8.39832502 26.0269392,8.35733818 26.0896289,8.35249585 C25.7810028,8.3754969 25.6218675,8.24976933 25.5934504,7.97998252 L25.5360997,7.41758079 C25.5188773,7.77902594 25.4790935,8.00972825 25.3993536,8.12888409 C25.3469974,8.20307546 25.3034246,8.25461166 25.2512406,8.27761271 L25.0683383,8.3355477 C24.9949707,8.35716523 24.9195365,8.38189569 24.8582246,8.38189569 C25.1944066,8.35249585 25.3759311,8.4386201 25.4041759,8.62539558 C25.4515376,8.89691179 25.4790935,9.07382968 25.5014826,9.15995393 C25.5075105,8.7405738 25.5645167,8.51402205 25.6676792,8.47165169 M26.0784343,9.30729904 L26.0443339,8.95934323 C26.0326226,9.18243617 26.0102334,9.32511188 25.9640773,9.39999502 C25.9360047,9.4411548 25.9013876,9.47487815 25.8664261,9.4935557 L25.7586136,9.52641435 C25.7124575,9.53782841 25.6676792,9.55512243 25.6275509,9.55512243 C25.8316368,9.53782841 25.9466826,9.58884578 25.969244,9.70367812 C25.9919777,9.87039253 26.0154002,9.98436016 26.0269392,10.0303623 C26.0269392,9.77216246 26.0613841,9.63605847 26.1292405,9.61219272 C26.2613366,9.56670943 26.3462432,9.53782841 26.3858548,9.53782841 C26.1974413,9.5502801 26.0956567,9.46934406 26.0782621,9.30729904" id="Shape" fill="#FFFFFF" fill-rule="nonzero"></path>
                    <path d="M19.0470296,6.47367284 C18.9879567,5.86492311 18.9040834,5.56348824 18.789382,5.58130108 C18.3619211,5.61450562 17.7181463,5.61934794 16.8506521,5.6032645 C16.8816525,5.66829004 16.9753426,5.77395654 17.0948663,5.86717134 C17.2553794,5.99497419 17.4744488,6.16289919 17.8347422,6.28862676 C17.9667016,6.3374652 18.1019516,6.37682184 18.2394695,6.40639908 C18.2678865,6.41331669 18.3946437,6.43579892 18.5387955,6.45758939 C18.7709539,6.48958334 19.0499574,6.52036671 19.0468574,6.47367284 L19.0470296,6.47367284 Z M19.1155749,9.93282396 C19.1190194,9.92504165 19.1247028,9.91068761 19.1247028,9.91068761 C19.1226194,9.91812073 19.1200299,9.92540136 19.1169527,9.93247808 C19.1169527,9.93247808 19.1155749,9.93247808 19.1155749,9.93282396 L19.1155749,9.93282396 Z M16.890436,8.16278038 C16.8506521,8.56348297 16.9464089,8.97335139 17.0507769,9.35675995 C17.130689,9.6542172 17.2540016,10.0173918 17.5478164,10.1763239 C17.8032252,10.311909 18.121668,10.2690198 18.3917159,10.2126413 C18.6655526,10.1567816 18.9507562,10.0741162 19.1484698,9.86347492 C19.3131163,9.6915723 19.394234,9.44772653 19.411112,9.21235483 C19.4443513,8.69215052 19.2941716,8.15672747 19.0914635,7.68442761 C19.0025957,7.47568872 18.8842776,7.28113092 18.7211811,7.12133412 C18.375699,6.77856652 17.7928917,6.7806418 17.4071091,7.0658203 C17.2875854,7.15384689 17.1777062,7.29980847 17.0783328,7.50076506 C16.9762609,7.70818922 16.912538,7.93249802 16.8902637,8.16278038 L16.890436,8.16278038 Z" id="Shape" fill="#32536A" fill-rule="nonzero"></path>
                    <path d="M18.0362448,8.47147875 C17.819242,8.39832502 17.6771569,8.35733818 17.6146395,8.35249585 C17.9227489,8.3754969 18.0830898,8.24976933 18.1108179,7.97998252 L18.167652,7.41758079 C18.1845299,7.77902594 18.2243138,8.00972825 18.3057759,8.12888409 C18.3567543,8.20307546 18.4020493,8.25461166 18.4521666,8.27761271 L18.6354134,8.3355477 C18.7099865,8.35716523 18.7835263,8.38189569 18.8463882,8.38189569 C18.5103785,8.35249585 18.3281651,8.4386201 18.3002647,8.62539558 C18.2532475,8.89691179 18.2243138,9.07382968 18.2022691,9.15995393 C18.1965856,8.7405738 18.1392349,8.51402205 18.0362448,8.47165169 M17.6254896,9.30729904 L17.6604512,8.95934323 C17.6716457,9.18243617 17.6954127,9.32511188 17.7407077,9.39999502 C17.7686081,9.4411548 17.8032252,9.47487815 17.8368089,9.4935557 L17.9451381,9.52641435 C17.9912942,9.53782841 18.0362448,9.55512243 18.0767175,9.55512243 C17.8709094,9.53782841 17.7565524,9.58884578 17.7346799,9.70367812 C17.711774,9.87039253 17.6881793,9.98436016 17.6771569,10.0303623 C17.6771569,9.77216246 17.6423676,9.63605847 17.5745112,9.61219272 C17.4434484,9.56670943 17.3575085,9.53782841 17.3173802,9.53782841 C17.5059659,9.5502801 17.6091283,9.46934406 17.6254896,9.30729904 M5.0245208,33.6752738 C4.93823639,33.839567 4.83627956,34.0310119 4.75774524,34.2233214 C4.6776609,34.4139016 4.623238,34.6075947 4.623238,34.7627221 L4.623238,34.7653162 C4.62582137,34.9138719 4.67490531,35.0088161 4.76084528,35.0935568 C4.84712969,35.1763952 4.98008691,35.2417666 5.13577775,35.2877688 C5.45025946,35.3776977 5.84585886,35.3873823 6.10608989,35.3885929 C6.16430173,35.3899765 6.22285802,35.3899765 6.28038096,35.3899765 C6.7872373,35.3899765 7.29719369,35.3756224 7.80835564,35.370953 L10.768376,35.3367109 C10.8715384,35.3367109 10.9741841,35.3358462 11.0764854,35.3358462 C11.198937,35.3358462 11.3201829,35.3367109 11.4405678,35.3367109 C11.8034445,35.3367109 12.1639101,35.3315226 12.5157646,35.2972805 C13.9565937,35.1585824 15.268599,34.4363838 16.1180096,33.2532995 C16.1824216,33.1663106 16.4032132,32.8136854 16.7073615,32.3228809 C17.0123708,31.8315576 17.4053869,31.193408 17.8213087,30.5115046 C18.6540136,29.1499459 19.5859197,27.6142364 20.1225709,26.7329328 C20.5307426,26.0610599 21.7995196,24.066194 21.8003808,24.0648104 C21.827553,24.0228446 21.8738468,23.9973291 21.9236934,23.9968449 C21.9729496,23.9968449 22.0191057,24.0241695 22.0449394,24.0648104 C22.045456,24.0653293 23.3171608,26.0610599 23.7249882,26.7329328 C24.5291038,28.0559258 26.223275,30.8459711 27.1388198,32.322708 C27.442968,32.8136854 27.6641041,33.1663106 27.7285161,33.2532995 C28.57586,34.4363838 29.8887264,35.1585824 31.3304167,35.2972805 C31.6817544,35.3315226 32.0432534,35.3367109 32.4047524,35.3367109 C32.5259983,35.3367109 32.6472443,35.3358462 32.7693514,35.3358462 C32.8714804,35.3358462 32.9742984,35.3367109 33.077633,35.3367109 C34.0631009,35.347952 35.050291,35.3597119 36.03817,35.370953 C36.5489876,35.3756224 37.0584273,35.3899765 37.5654558,35.3899765 C37.6228065,35.3899765 37.6815351,35.3899765 37.7397469,35.3885929 C37.9343604,35.3873823 38.2056138,35.3839235 38.4624004,35.3413802 C38.7198758,35.3019499 38.9563399,35.2184197 39.0844748,35.0935568 C39.170587,35.0088161 39.2194988,34.913699 39.2220821,34.7653162 L39.2220821,34.7609927 C39.2220821,34.6058653 39.1676592,34.412691 39.0894693,34.2214191 C39.0107628,34.0310119 38.9079449,33.8393941 38.821316,33.677522 C38.7631042,33.5678779 38.70007,33.4590984 38.6366915,33.3489355 C37.3250306,31.0552288 36.078815,28.7362728 34.8356994,26.4076322 C33.3965925,23.7159899 31.9621357,21.0196783 30.5194121,18.3302843 C30.4997409,18.2939125 30.4967257,18.2507672 30.5111453,18.2119931 C30.5243857,18.1727817 30.5540117,18.1413272 30.592263,18.1258689 C32.4634809,17.3576682 33.9936945,15.7761295 35.2650548,14.2004708 C36.9903986,12.0608539 38.4157276,9.71716746 39.7532221,7.31277899 C40.2139223,6.48491396 40.6246774,5.62228793 41.0681552,4.77280536 C40.2204668,6.12571703 38.9795902,7.45787587 37.3670533,8.76668778 C35.2464546,10.4826011 31.6433484,12.1765509 26.5939019,13.8308975 C21.7233965,15.4290384 18.1445739,17.2827851 15.8433118,19.4142738 C14.7534759,20.4114474 13.9855274,21.1028626 13.5420496,21.4698418 C13.440265,21.5742977 12.9547645,22.0837797 12.1070761,23.026823 C11.0782077,24.1886357 9.98751069,25.5780377 8.84893533,27.1957209 C8.41716881,27.8096589 8.04998644,28.3328032 7.73464361,28.7846961 C6.90968884,30.313488 6.07405616,31.8376105 5.20914533,33.3491084 C5.14611121,33.4590984 5.08307709,33.5678779 5.0245208,33.6752738" id="Shape" fill="#FFFFFF" fill-rule="nonzero"></path>
                    <path d="M43.2891608,1.12376582 C43.2674605,1.19570897 43.1942652,1.3036237 43.092825,1.41586193 C42.9927626,1.52931074 42.8718611,1.64621836 42.7680098,1.77920942 L42.7662876,1.78093882 C42.5699518,2.03792805 42.3670715,2.30252665 42.1884748,2.59323923 L42.1898526,2.59150983 C41.9144984,3.03313298 41.6490907,3.48093136 41.3938315,3.93456391 C40.7717571,5.03411809 40.2549117,6.17984733 39.654882,7.25778399 C38.318593,9.65992423 36.8953308,11.9984225 35.1775648,14.1287006 C33.9103379,15.7015923 32.3909744,17.2663558 30.5492069,18.0219318 C30.4818276,18.0499002 30.4293066,18.1050881 30.4045384,18.1739463 C30.3800826,18.2427765 30.3861104,18.3192161 30.4200386,18.3835499 C31.8620733,21.0738086 33.2973913,23.7680449 34.7370149,26.4608978 C35.9799582,28.7895384 37.2266905,31.1084944 38.5386958,33.4035846 L38.5383513,33.4018552 C38.6020744,33.5159958 38.664764,33.6242564 38.7226314,33.7299229 C38.8092603,33.8928326 38.9096671,34.0802998 38.985618,34.2648271 C39.0620857,34.4477979 39.1108252,34.6297311 39.109964,34.760128 L39.109964,34.7653162 C39.1065196,34.8862015 39.0744858,34.9441365 39.0090406,35.0114102 C38.9101838,35.110505 38.6909421,35.1929975 38.4446613,35.2305255 C38.1983804,35.2699559 37.9329827,35.2747982 37.7392302,35.2765276 L37.5463389,35.2765276 C37.0472327,35.2765276 36.5446819,35.2633842 36.0386867,35.2587148 C35.0511521,35.246609 34.0649954,35.2336385 33.0781497,35.2244726 C32.9888893,35.2228575 32.8996155,35.2221081 32.8103408,35.2222244 C32.6704946,35.2222244 32.5315095,35.2230891 32.3926966,35.2230891 C32.0355033,35.2230891 31.68296,35.2184197 31.3409224,35.1855611 C29.9314381,35.0489383 28.6483665,34.3428232 27.8196227,33.1891387 C27.7920668,33.1507459 27.718527,33.0385077 27.6181202,32.8795756 C26.9089002,31.7587498 24.7598845,28.2181438 23.8202283,26.674479 C23.4108509,26.000012 22.1410406,24.0054919 22.1406961,24.0037625 C22.0933796,23.9294081 22.0115669,23.8844197 21.9236934,23.8844337 C21.835859,23.8844337 21.7537079,23.9295712 21.7063462,24.0037625 C21.7049684,24.0054919 20.4356748,26.000012 20.0254363,26.674479 C19.4896463,27.5569932 18.556879,29.0904545 17.7246909,30.452532 C17.3084245,31.1339166 16.9162696,31.7717203 16.6116047,32.2633895 C16.4848082,32.4694939 16.3567858,32.6748353 16.2275443,32.8794027 C16.1276542,33.0385077 16.0537699,33.1507459 16.0260418,33.1896575 C15.1986759,34.3428232 13.9152598,35.0489383 12.5049144,35.1853881 C12.1632213,35.2182468 11.8111946,35.2230891 11.4531401,35.2230891 C11.3141551,35.2230891 11.1748255,35.2222244 11.035496,35.2222244 C10.9461116,35.2222244 10.8572438,35.2227432 10.7671704,35.2244726 C9.78032476,35.2336385 8.79382353,35.246609 7.80715007,35.2587148 C7.3014993,35.2633842 6.79843189,35.2765276 6.29932564,35.2765276 L6.10695101,35.2765276 C5.84861445,35.2751441 5.46024848,35.2647677 5.16763926,35.1789893 C5.02107631,35.1378296 4.90448041,35.0767816 4.8380018,35.0112373 C4.77255654,34.9441365 4.74103947,34.8870662 4.73759499,34.7644515 L4.73759499,34.760128 C4.73673386,34.6297311 4.78461224,34.4477979 4.86176876,34.2644812 C4.93771971,34.079954 5.03743763,33.8923138 5.12320537,33.7299229 C5.17883384,33.6251211 5.24324576,33.5166875 5.3078299,33.4018552 L5.30696878,33.4035846 C6.62035188,31.1084944 7.8667397,28.7895384 9.11088861,26.4600331 C10.5489622,23.7680449 11.9835912,21.0738086 13.4247648,18.3837228 C13.4592097,18.3190432 13.4648931,18.2427765 13.4406095,18.1739463 C13.4157503,18.1050463 13.363187,18.0498168 13.2957688,18.0217589 C11.4543457,17.2663558 9.93498225,15.7015923 8.66741084,14.1285277 C6.95153936,11.9979036 5.52655486,9.65992423 4.19181593,7.25812987 C3.59040841,6.17984733 3.07407972,5.03411809 2.45269417,3.93456391 C2.19714295,3.48127223 1.93173899,3.03365322 1.6566731,2.59202865 L1.65753422,2.59289335 C1.47842086,2.30304547 1.27709057,2.03775511 1.07954921,1.78059294 C0.975525682,1.64621836 0.853935271,1.52844604 0.752839562,1.41499723 C0.65243275,1.30310488 0.57768737,1.19570897 0.557537117,1.12376582 C0.526536729,1.02864868 0.515169921,0.953592606 0.515169921,0.898078782 C0.516892164,0.808495726 0.537214641,0.769065346 0.569592824,0.727386743 C0.618332323,0.666338831 0.743539445,0.600967411 0.925408388,0.565341717 C1.10624398,0.528159561 1.33013568,0.517264325 1.54972176,0.517264325 C1.75466877,0.517264325 1.95393237,0.525911338 2.12271226,0.525911338 L2.14303474,0.525911338 C3.07786866,0.524181935 4.01098034,0.523317234 4.94546981,0.521587831 C5.59906132,0.521587831 6.25403063,0.520377249 6.90710547,0.520377249 L6.91451112,0.520377249 C7.62200886,0.519858428 8.3231343,0.794141684 8.98809263,1.19570897 C9.65184538,1.59641156 10.2727143,2.12024762 10.8167711,2.59064513 C11.8607952,3.49097213 12.7649732,4.59260161 13.6343619,5.69768988 C13.6925737,5.77136243 13.7854027,5.80819871 13.8777149,5.79263409 C13.9700272,5.77793416 14.0464948,5.71411921 14.0783563,5.62574673 C14.3842268,4.78110649 14.7901597,3.9461509 15.2124539,3.18158201 L15.2172761,3.17345381 C15.7427327,2.12802993 16.8048405,1.11546469 17.92361,0.887702366 C18.2117414,0.827173275 18.5281176,0.810225129 18.8549994,0.810225129 C19.1734423,0.810225129 19.4999797,0.825789752 19.8204893,0.825789752 C20.002186,0.825270932 20.2972064,0.825270932 20.6087603,0.825270932 C21.2313514,0.825270932 21.9216267,0.825789752 21.923349,0.825789752 C21.9250712,0.825789752 22.6148298,0.825270932 23.237421,0.825270932 C23.5489749,0.825270932 23.8431341,0.825270932 24.0244864,0.825789752 C24.3456848,0.825789752 24.6723945,0.810225129 24.9915262,0.810225129 C25.3177192,0.810225129 25.635301,0.827000334 25.9217101,0.887702366 C27.0404797,1.11563763 28.1034485,2.12802993 28.6294218,3.17345381 L28.6337274,3.18158201 C29.0560216,3.9461509 29.4607488,4.78110649 29.7674805,5.62574673 C29.799342,5.71411921 29.8766707,5.77793416 29.968983,5.79263409 C30.0612092,5.80777747 30.1543472,5.77141395 30.2121638,5.69768988 C31.0810358,4.59260161 31.985386,3.49045331 33.0280324,2.59064513 C33.573467,2.12024762 34.1943359,1.59641156 34.8582608,1.19570897 C35.5227025,0.794141684 36.2245168,0.519858428 36.9316701,0.520377249 L36.9385591,0.520377249 C37.5921506,0.520377249 38.2457421,0.521587831 38.9007114,0.521587831 C39.8341676,0.523317234 40.7691737,0.524181935 41.7048687,0.525911338 L41.7248468,0.525911338 C41.8929378,0.525911338 42.092718,0.517264325 42.2973206,0.517264325 C42.5897576,0.516053743 42.8921836,0.538535977 43.082836,0.609614425 C43.1785927,0.644202477 43.242488,0.686745782 43.276244,0.727386743 C43.309311,0.768892406 43.3287724,0.808495726 43.3304946,0.898078782 C43.3304946,0.953419666 43.3193001,1.02951338 43.2891608,1.12376582 L43.2891608,1.12376582 Z M43.6675378,0.390844993 C43.4953134,0.192828392 43.2597104,0.107914724 43.0234186,0.0586267489 C42.7847156,0.00951171443 42.533268,4.26325641e-14 42.2973206,4.26325641e-14 C42.0785956,4.26325641e-14 41.8748542,0.0091658339 41.7248468,0.0091658339 L41.7053854,0.0091658339 C40.7700348,0.00743643128 39.8350287,0.00657172997 38.9007114,0.00484232734 C38.2462588,0.00484232734 37.5930117,0.00311292472 36.9385591,0.00311292472 L36.9397647,0.00311292472 L36.9316701,0.00259410393 C36.090354,0.00345880525 35.3029442,0.323744171 34.5925186,0.752636021 C33.8819208,1.18239257 33.2417628,1.72507912 32.6928837,2.19772485 C31.718266,3.04046275 30.879361,4.0324481 30.0866122,5.02754636 C29.7946919,4.29670082 29.4464542,3.58626222 29.0835775,2.9302998 C28.4907811,1.77454003 27.3618504,0.666511771 26.0269392,0.380814458 C25.685246,0.308871308 25.3349417,0.292960804 24.9915262,0.292960804 C24.6567221,0.292960804 24.3284624,0.308006607 24.0256919,0.308006607 C23.8439952,0.307660727 23.5493193,0.307660727 23.237421,0.307660727 L21.923349,0.308006607 L20.6087603,0.307660727 C20.2968619,0.307660727 20.002186,0.307660727 19.8192837,0.308006607 C19.5168577,0.308006607 19.189287,0.292960804 18.8549994,0.292960804 C18.5112396,0.292960804 18.1612797,0.308871308 17.8178642,0.381160338 C16.480542,0.667203532 15.3497167,1.77920942 14.7577815,2.93860094 L14.7582982,2.93860094 C14.3974881,3.59179631 14.0497671,4.29929492 13.7590523,5.02754636 C12.9668202,4.0324481 12.1279153,3.03959805 11.1532975,2.19772485 C10.6049351,1.72507912 9.96460485,1.18239257 9.25417929,0.752636021 C8.54306483,0.323744171 7.75617165,0.00345880525 6.91451112,0.00259410393 L6.90073317,0.00311292472 C6.2488639,0.00311292472 5.59613351,0.00484232734 4.94512536,0.00484232734 C4.01011922,0.00657172997 3.07700754,0.00743643128 2.14165694,0.0091658339 L2.12271226,0.0091658339 C1.97167148,0.0091658339 1.76758559,4.26325641e-14 1.54972176,4.26325641e-14 C1.23575672,0.000864701311 0.892685756,0.0152187431 0.5899153,0.122268765 C0.438013399,0.176744948 0.292656025,0.258718632 0.178299038,0.390844993 C0.0644587243,0.521414891 -0.00201988545,0.704039808 4.68070859e-05,0.898078782 C4.68070859e-05,1.01982873 0.0234693224,1.14711276 0.065664295,1.28200616 C0.131626232,1.47950394 0.253388867,1.62805963 0.368090302,1.76018599 C0.485375103,1.89058295 0.601971007,2.00576116 0.671377431,2.09690068 C0.867713222,2.35164169 1.05802116,2.60361565 1.21922318,2.86579309 L1.21973985,2.86613897 C1.49116825,3.30136305 1.75284286,3.74264459 2.00456634,4.18965079 C2.61079615,5.26153454 3.12660816,6.40639908 3.74179364,7.51079559 C5.08342154,9.92331225 6.52235621,12.2882703 8.26664471,14.4538283 C9.49873791,15.9788155 10.987101,17.5306085 12.8426464,18.3778429 C11.4441845,20.9897596 10.0505448,23.6039246 8.6565607,26.2161873 C7.41275624,28.544655 6.16946846,30.8589416 4.86004652,33.1459036 L4.85970207,33.1467683 C4.79839019,33.254683 4.73191158,33.3669213 4.66853301,33.4876336 C4.58310972,33.6488139 4.47443614,33.8499434 4.38505169,34.0669834 C4.29721725,34.2840235 4.22281632,34.5161093 4.2219552,34.760128 L4.2219552,34.7708503 L4.22247187,34.7708503 C4.22161075,35.0195384 4.32683985,35.2409019 4.48166956,35.3856529 C4.71761696,35.6070165 5.02589859,35.6910655 5.31954116,35.7417369 C5.61404484,35.7884308 5.9040707,35.7918896 6.10385097,35.7929273 C6.16895179,35.7932731 6.23508595,35.793792 6.29932564,35.793792 C6.80738756,35.793792 7.31234943,35.7806485 7.81266125,35.7759791 C8.8007125,35.764738 9.78738596,35.7509028 10.7726816,35.7417369 C10.8602836,35.7408412 10.9478895,35.7403801 11.035496,35.7403534 C11.1734478,35.7403534 11.3127773,35.7408722 11.4531401,35.7408722 C11.8146391,35.7408722 12.1844049,35.7365487 12.5539984,35.7005772 C14.1036733,35.5511568 15.5260744,34.7708503 16.4442026,33.4910924 C16.4886365,33.4300445 16.5594207,33.3191898 16.6629276,33.1567988 C17.3786921,32.0255966 19.5258134,28.4891412 20.4656418,26.9439199 C20.6666277,26.6129123 21.0863385,25.9467464 21.4547264,25.3641106 C21.6338398,25.0815262 21.7991752,24.8198676 21.9236934,24.6240992 C22.0480394,24.8198676 22.2132026,25.0815262 22.3921437,25.3641106 C22.7607039,25.9467464 23.1795536,26.6129123 23.3815728,26.9439199 C24.1466245,28.2049901 24.9135405,29.464919 25.6823182,30.7237023 C26.0991012,31.4050869 26.4912561,32.0437553 26.7971266,32.5371539 C26.9498896,32.7841126 27.0812968,32.9947538 27.1832537,33.1567988 C27.2862439,33.3191898 27.3575447,33.4296986 27.4011175,33.4907465 C28.3204512,34.7708503 29.7423357,35.5511568 31.2911495,35.7005772 C31.6617764,35.7365487 32.0311977,35.7408722 32.3926966,35.7408722 C32.5332317,35.7408722 32.6722168,35.7403534 32.8103408,35.7403534 C32.8986919,35.7403534 32.985493,35.7408722 33.0726385,35.7417369 C34.0579342,35.7509028 35.0451243,35.764738 36.0330033,35.7759791 C36.5338318,35.7806485 37.038277,35.793792 37.5465111,35.793792 C37.6110953,35.793792 37.6772295,35.7932731 37.7418136,35.7929273 C38.0092781,35.7903332 38.4324333,35.7872202 38.8216604,35.6758467 C39.016274,35.6191223 39.2083042,35.5347275 39.3641672,35.3859988 C39.5214081,35.2400372 39.628015,35.0165984 39.6245705,34.7651433 L39.6245705,34.7599551 C39.624226,34.5161093 39.550514,34.2840235 39.4619907,34.0664646 C39.3717451,33.8494246 39.2630715,33.6479492 39.1762704,33.4859042 C39.1134085,33.367786 39.047791,33.2558936 38.9861347,33.1467683 L38.985618,33.1459036 C37.6772295,30.8589416 36.4337694,28.544655 35.1908261,26.2161873 C33.7951198,23.6039246 32.4013079,20.9899326 31.0026737,18.3780158 C32.8582191,17.5306085 34.3465822,15.9788155 35.578331,14.4543471 C37.323825,12.2882703 38.7617264,9.92331225 40.1047321,7.51079559 C40.7195731,6.40639908 41.2350406,5.26153454 41.8416149,4.18965079 C42.0932985,3.74306693 42.3547992,3.30213413 42.6259247,2.86717661 L42.6273025,2.86492839 C42.7878156,2.60413447 42.9793291,2.35164169 43.1748038,2.09551716 L43.173426,2.09724656 C43.2442102,2.0059341 43.3611506,1.89023707 43.4775743,1.75984011 C43.5929646,1.62771375 43.7140383,1.47950394 43.7796558,1.28287087 C43.8227119,1.1472857 43.8456178,1.02000167 43.8456178,0.898078782 C43.8482011,0.704039808 43.7818947,0.522106652 43.6675378,0.390844993 L43.6675378,0.390844993 Z" id="Shape" fill="#32536A" fill-rule="nonzero"></path>
                </g>
            </g>
        </g>
    </g>
</svg>