<?xml version="1.0" encoding="UTF-8"?>
<svg width="62px" height="62px" viewBox="0 0 62 62" version="1.1" xmlns="http://www.w3.org/2000/svg" xmlns:xlink="http://www.w3.org/1999/xlink">
    <!-- Generator: sketchtool 53.2 (72643) - https://sketchapp.com -->
    <title>2CDBF92B-9837-42CC-BBED-BDEB7AEA19D0@1.00x</title>
    <desc>Created with sketchtool.</desc>
    <g id="Dashboard-x_2" stroke="none" stroke-width="1" fill="none" fill-rule="evenodd">
        <g id="Icons" transform="translate(-280.000000, -386.000000)">
            <g id="WidgetIcon/Store" transform="translate(281.000000, 387.000000)">
                <circle id="Oval" stroke="#DFE5EB" stroke-width="1" fill="#FFFFFF" fill-rule="evenodd" cx="30" cy="30" r="30"></circle>
                <path d="M27,25.5 L27,23.853 L28.5705,16.5 L31.428,16.5 L33,23.85 L33,25.497 C33,27.0975 31.6005,28.5 30,28.5 C28.3995,28.5 27,27.1005 27,25.5 Z M34.5,25.5 C34.5,27.1005 35.901,28.5 37.5015,28.5 C39.102,28.5 40.5,27.2505 40.5,25.65 L40.5,24.003 L36.006,16.5 L33.0915,16.5 L34.5,23.853 L34.5,25.5 Z M19.5,25.602 C19.5,27.2025 20.8995,28.5 22.5,28.5 C24.1005,28.5 25.5,27.2025 25.5,25.602 L25.5,23.9565 L26.9085,16.5 L23.994,16.5 L19.5,23.9565 L19.5,25.602 Z M13.5,30 L46.5,30 L46.5,48 L13.5,48 L13.5,30 Z M16.5,42 L43.5,42 L43.5,33 L16.5,33 L16.5,42 Z M18,25.602 L18,23.9565 L22.3305,16.5 L19.3095,16.5 L12,23.9565 L12,25.6035 C12,27.2025 13.3995,28.5 15,28.5 C16.6005,28.5 18,27.2025 18,25.602 Z M40.6905,16.5 L37.6695,16.5 L42,23.853 L42,25.5 C42,27.1005 43.3995,28.5 45,28.5 C46.6005,28.5 48,27.2025 48,25.602 L48,23.9565 L40.6905,16.5 Z M40.5,12 L19.5,12 L19.5,15 L40.5,15 L40.5,12 Z" id="Shape" fill="#3899EC" fill-rule="nonzero"></path>
            </g>
        </g>
    </g>
</svg>