<?xml version="1.0" encoding="UTF-8"?>
<svg width="32px" height="30px" viewBox="0 0 32 30" version="1.1" xmlns="http://www.w3.org/2000/svg" xmlns:xlink="http://www.w3.org/1999/xlink">
    <!-- Generator: sketchtool 53.2 (72643) - https://sketchapp.com -->
    <title>18FA21C9-791A-46CB-B5F3-2778D939829F@1.00x</title>
    <desc>Created with sketchtool.</desc>
    <g id="Dashboard-x_2" stroke="none" stroke-width="1" fill="none" fill-rule="evenodd">
        <g id="Icons" transform="translate(-217.000000, -107.000000)" fill="#B6C1CD" fill-rule="nonzero">
            <g id="StatIcon/Rain" transform="translate(209.000000, 98.000000)">
                <path d="M30.8558441,14.6528295 C30.3586673,14.6528295 29.8779202,14.7178533 29.4036022,14.7977195 C27.4491832,11.3401498 23.7167859,9 19.427922,9 C13.1167774,9 8,14.0619611 8,20.3063657 C8,24.5413938 10.3573036,28.2272535 13.8411125,30.1638317 C14.0382688,29.2718749 14.4782988,28.4216181 15.1790609,27.7289733 L15.219778,27.6886868 C12.6167433,26.2320124 10.858052,23.4741554 10.858052,20.3063657 C10.858052,15.6232389 14.6954565,11.8264147 19.4286364,11.8264147 C23.4939135,11.8264147 26.8812874,14.63516 27.7613474,18.3924045 C28.6542654,17.8199124 29.7136233,17.479951 30.8565584,17.479951 C34.0124879,17.479951 36.5705194,20.0109315 36.5705194,23.1334873 C36.5705194,25.5669321 35.0118417,27.6363851 32.8309787,28.4329265 C33.3938743,29.2428969 33.683894,30.1793809 33.7038954,31.1236394 C37.0362655,29.9609857 39.4285714,26.8278283 39.4285714,23.1334873 C39.4271428,18.4496537 35.5897383,14.6528295 30.8558441,14.6528295 Z M18.7135876,28.228667 L17.1984843,29.7277482 C16.3619987,30.5560948 16.3619987,31.897564 17.1984843,32.7259106 C18.0356843,33.5542572 19.3922053,33.5542572 20.2286909,32.7259106 C21.0658909,31.897564 21.0658909,30.5560948 20.2286909,29.7277482 L18.7135876,28.228667 Z M23.7139285,33.8814965 L22.1988252,35.3805777 C21.3616253,36.2089243 21.3616253,37.551807 22.1988252,38.37874 C23.0353108,39.2070867 24.3918319,39.2070867 25.2283175,38.37874 C26.0655175,37.551807 26.0655175,36.2089243 25.2283175,35.3805777 L23.7139285,33.8814965 Z M28.7135551,28.228667 L27.1984518,29.7277482 C26.3612519,30.5560948 26.3612519,31.897564 27.1984518,32.7259106 C28.0349374,33.5542572 29.3914585,33.5542572 30.2286584,32.7259106 C31.0651441,31.897564 31.0651441,30.5560948 30.2286584,29.7277482 L28.7135551,28.228667 Z" id="Shape"></path>
            </g>
        </g>
    </g>
</svg>