<?xml version="1.0" encoding="UTF-8"?>
<svg width="32px" height="32px" viewBox="0 0 32 32" version="1.1" xmlns="http://www.w3.org/2000/svg" xmlns:xlink="http://www.w3.org/1999/xlink">
    <!-- Generator: sketchtool 53.2 (72643) - https://sketchapp.com -->
    <title>39968738-CFBC-4F5B-881C-AB82ADAEB26E@1.00x</title>
    <desc>Created with sketchtool.</desc>
    <g id="Dashboard-x_2" stroke="none" stroke-width="1" fill="none" fill-rule="evenodd">
        <g id="Icons" transform="translate(-68.000000, -106.000000)" fill="#B6C1CD" fill-rule="nonzero">
            <g id="StatIcon/Direction" transform="translate(60.000000, 98.000000)">
                <path d="M39.2420118,15.5295 L27.2416993,12.5295 C27.2276996,12.526 27.2126998,12.527 27.1987,12.524 C27.1542007,12.515 27.1092014,12.5095 27.0637021,12.5065 C27.0387025,12.5045 27.0142029,12.5025 26.9892033,12.5025 C26.9382041,12.5035 26.8877049,12.5095 26.8372057,12.5175 C26.818206,12.5205 26.7992063,12.5215 26.7812065,12.526 C26.7157076,12.5405 26.6512086,12.561 26.5887096,12.5895 C26.5852096,12.5915 26.5817097,12.592 26.5782097,12.5935 C26.5162107,12.6225 26.4562116,12.6575 26.3997125,12.7 L21.9997813,16 L21.9997813,12.788 C22.8812675,12.401 23.4997578,11.5225 23.4997578,10.5 C23.4997578,9.1215 22.3782753,8 20.9997969,8 C19.6213184,8 18.4998359,9.1215 18.4998359,10.5 C18.4998359,11.5225 19.1183263,12.4015 19.9998125,12.788 L19.9998125,38 L8.99998438,38 C8.447993,38 8,38.448 8,39 C8,39.552 8.447993,40 8.99998438,40 L32.9996094,40 C33.5516008,40 33.9995938,39.552 33.9995938,39 C33.9995938,38.448 33.5516008,38 32.9996094,38 L21.9997813,38 L21.9997813,20 L26.3997125,23.3 C26.4537117,23.3405 26.5142107,23.3625 26.5727098,23.3905 C26.6097092,23.408 26.6427087,23.4345 26.6817081,23.4475 C26.7852065,23.482 26.8922048,23.5 26.9992031,23.5 C26.9992031,23.5 26.9992031,23.5 26.9997031,23.5 L26.9997031,23.5 C27.0027031,23.5 27.005703,23.499 27.009203,23.499 C27.0847018,23.498 27.1597006,23.4885 27.2331995,23.471 C27.2361994,23.4705 27.2391994,23.4705 27.2421993,23.47 L39.2425118,20.47 C39.6875049,20.3585 40,19.959 40,19.5 L40,16.5 C39.9995,16.0405 39.6870049,15.6405 39.2420118,15.5295 Z M25.9997188,20.4995 L22.6662708,17.9995 L25.9997188,15.4995 L25.9997188,20.4995 Z M20.9997969,9.9995 C21.2752926,9.9995 21.4997891,10.2235 21.4997891,10.4995 C21.4997891,10.7755 21.2752926,10.9995 20.9997969,10.9995 C20.7243012,10.9995 20.4998047,10.7755 20.4998047,10.4995 C20.4998047,10.2235 20.7243012,9.9995 20.9997969,9.9995 Z M27.9996875,14.78 L31.999625,15.78 L31.999625,20.2185 L27.9996875,21.2185 L27.9996875,14.78 Z M37.9995313,18.7185 L33.9995938,19.7185 L33.9995938,16.28 L37.9995313,17.28 L37.9995313,18.7185 Z" id="Shape"></path>
            </g>
        </g>
    </g>
</svg>