<?xml version="1.0" encoding="UTF-8"?>
<svg width="39px" height="30px" viewBox="0 0 39 30" version="1.1" xmlns="http://www.w3.org/2000/svg" xmlns:xlink="http://www.w3.org/1999/xlink">
    <!-- Generator: sketchtool 53.2 (72643) - https://sketchapp.com -->
    <title>B1E091B9-529A-484D-B9E7-24DDDD37EC3D@1.00x</title>
    <desc>Created with sketchtool.</desc>
    <g id="Dashboard-x_2" stroke="none" stroke-width="1" fill="none" fill-rule="evenodd">
        <g id="Icons" transform="translate(-362.000000, -107.000000)" fill="#B6C1CD" fill-rule="nonzero">
            <g id="StatIcon/Wind" transform="translate(357.000000, 98.000000)">
                <path d="M29.0002885,22.5 C33.548951,22.5 37.2501298,26.20125 37.2501298,30.75 C37.2501298,35.29875 33.548951,39 29.0002885,39 C28.1715544,39 27.5003173,38.328 27.5003173,37.5 C27.5003173,36.672 28.1715544,36 29.0002885,36 C31.8944828,36 34.2501875,33.64425 34.2501875,30.75 C34.2501875,27.85575 31.8944828,25.5 29.0002885,25.5 L6.49997115,25.49925 C5.67198708,25.49925 5,24.82725 5,23.99925 C5,23.17125 5.67198708,22.49925 6.49997115,22.49925 L29.0002885,22.5 Z M24.499625,27 C26.5673352,27 28.2495529,28.68225 28.2495529,30.75 C28.2495529,32.81775 26.5673352,34.5 24.499625,34.5 C23.6708909,34.5 22.9996539,33.828 22.9996539,33 C22.9996539,32.172 23.6708909,31.5 24.499625,31.5 C24.913617,31.5 25.2496106,31.164 25.2496106,30.75 C25.2496106,30.336 24.913617,30 24.499625,30 L6.50072114,30 C5.67273706,30 5.00074999,29.328 5.00074999,28.5 C5.00074999,27.672 5.67273706,27 6.50072114,27 L24.499625,27 Z M40.2500721,16.5 C42.3177824,16.5 44,18.18225 44,20.25 C44,22.31775 42.3177824,24 40.2500721,24 L37.2501298,24 C36.4213957,24 35.7501587,23.328 35.7501587,22.5 C35.7501587,21.672 36.4213957,21 37.2501298,21 L40.2500721,21 C40.6640642,21 41.0000577,20.664 41.0000577,20.25 C41.0000577,19.836 40.6640642,19.5 40.2500721,19.5 C39.422088,19.5 38.750101,18.828 38.750101,18 C38.750101,17.172 39.422088,16.5 40.2500721,16.5 Z M6.49997115,20.99925 C5.67198708,20.99925 5,20.32725 5,19.49925 C5,18.67125 5.67198708,17.99925 6.49997115,17.99925 L31.2502452,18 C32.9047134,18 34.2501875,16.6545 34.2501875,15 C34.2501875,13.3455 32.9047134,12 31.2502452,12 C29.595777,12 28.2503029,13.3455 28.2503029,15 C28.2503029,15.828 27.5783158,16.5 26.7503317,16.5 C25.9215977,16.5 25.2503606,15.828 25.2503606,15 C25.2503606,11.69175 27.9420588,9 31.2502452,9 C34.5584316,9 37.2501298,11.69175 37.2501298,15 C37.2501298,18.30825 34.5584316,21 31.2502452,21 L6.49997115,20.99925 Z" id="Wind"></path>
            </g>
        </g>
    </g>
</svg>