<?xml version="1.0" encoding="UTF-8"?>
<svg width="32px" height="19px" viewBox="0 0 32 19" version="1.1" xmlns="http://www.w3.org/2000/svg" xmlns:xlink="http://www.w3.org/1999/xlink">
    <!-- Generator: sketchtool 53.2 (72643) - https://sketchapp.com -->
    <title>B230A0A3-C520-48B8-93DC-AE7F6BC717AE@1.00x</title>
    <desc>Created with sketchtool.</desc>
    <g id="Dashboard-x_2" stroke="none" stroke-width="1" fill="none" fill-rule="evenodd">
        <g id="Icons" transform="translate(-291.000000, -113.000000)" fill="#B6C1CD" fill-rule="nonzero">
            <g id="StatIcon/Swell" transform="translate(283.000000, 98.000000)">
                <path d="M14.5406485,18.588382 C12.8491393,20.4674609 10.0970597,20.4674609 8.40582749,18.588382 C7.86473572,17.9873168 7.86473572,17.0127601 8.40575821,16.411618 C8.94678071,15.8104759 9.82398531,15.8104759 10.3650771,16.411618 C10.9762039,17.0904137 11.9704107,17.0904137 12.5813989,16.411618 C14.2727697,14.5324621 17.0249185,14.5324621 18.7163585,16.411618 C19.3272083,17.0904137 20.3215536,17.0904907 20.9325419,16.411618 C21.7519035,15.5014007 22.8413607,15 24.0000909,15 C25.1587519,15.000077 26.2482091,15.5014007 27.0675014,16.411695 C27.6783512,17.0903368 28.6726965,17.0904907 29.2836848,16.411618 C30.1030464,15.5014007 31.1925036,15 32.3512338,15 C33.5098948,15.000077 34.599352,15.5014007 35.4186444,16.411695 C35.7145788,16.7403953 36.108119,16.9215614 36.526736,16.9215614 C36.945353,16.9215614 37.3388932,16.7404722 37.6348277,16.411618 C38.1758502,15.8104759 39.0530548,15.8104759 39.5941465,16.411618 C40.1352383,17.0126832 40.1353076,17.9872399 39.5942158,18.588382 C38.7748542,19.4986763 37.6855355,20 36.526736,20 C35.368075,20 34.2786871,19.4986763 33.4593255,18.588382 C33.1633218,18.2596047 32.7697816,18.0784386 32.3511646,18.0784386 C31.9325475,18.0784386 31.5390074,18.2595278 31.2430036,18.588382 C29.5516329,20.4674609 26.799484,20.4674609 25.1081133,18.588382 C24.8121096,18.2596047 24.4185694,18.0784386 23.9999524,18.0784386 C23.5813354,18.0784386 23.1877952,18.2595278 22.8917914,18.588382 C21.2004207,20.4674609 18.4482718,20.4674609 16.7569011,18.588382 C16.1457743,17.9095863 15.1516368,17.9095863 14.5406485,18.588382 Z M14.5407588,25.588382 C12.8492568,27.4674609 10.0971891,27.4674609 8.40582573,25.588382 C7.8647363,24.9873168 7.8647363,24.0127601 8.40575646,23.411618 C8.94677661,22.8104759 9.82397741,22.8104759 10.3650668,23.411618 C10.976191,24.0904137 11.9703935,24.0904137 12.5813791,23.411618 C14.2727425,21.5324621 17.0248795,21.5324621 18.7163121,23.411618 C19.3271592,24.0904137 20.3215002,24.0904907 20.9324859,23.411618 C21.7518439,22.5014007 22.8412964,22 24.0000216,22 C25.1586776,22.000077 26.2481301,22.5014007 27.0674189,23.411695 C27.678266,24.0903368 28.672607,24.0904907 29.2835926,23.411618 C30.1029507,22.5014007 31.1924032,22 32.3511284,22 C33.5097844,22.000077 34.5992369,22.5014007 35.4185256,23.411695 C35.7144588,23.7403953 36.1079973,23.9215614 36.5266125,23.9215614 C36.9452277,23.9215614 37.3387662,23.7404722 37.6346994,23.411618 C38.1757195,22.8104759 39.0529203,22.8104759 39.5941483,23.411618 C40.1352377,24.0126832 40.135307,24.9872399 39.5942176,25.588382 C38.7748595,26.4986763 37.6855456,27 36.526751,27 C35.3680951,27 34.2787119,26.4986763 33.4593538,25.588382 C33.1633514,25.2596047 32.7698129,25.0784386 32.3511977,25.0784386 C31.9325825,25.0784386 31.539044,25.2595278 31.2430415,25.588382 C29.5516781,27.4674609 26.7995412,27.4674609 25.1081778,25.588382 C24.8121753,25.2596047 24.4186369,25.0784386 24.0000216,25.0784386 C23.5814064,25.0784386 23.187868,25.2595278 22.8918655,25.588382 C21.2005021,27.4674609 18.4483651,27.4674609 16.7570018,25.588382 C16.1458776,24.9095863 15.1517444,24.9095863 14.5407588,25.588382 Z M37.6346994,30.411618 C38.1757195,29.8104759 39.0529203,29.8104759 39.5941483,30.411618 C40.1352377,31.0126832 40.135307,31.9872399 39.5942176,32.588382 C38.7748595,33.4986763 37.6855456,34 36.526751,34 C35.3680951,34 34.2787119,33.4986763 33.4593538,32.588382 C33.1633514,32.2596047 32.7698129,32.0784386 32.3511977,32.0784386 C31.9325825,32.0784386 31.539044,32.2595278 31.2430415,32.588382 C29.5516781,34.4674609 26.7995412,34.4674609 25.1081778,32.588382 C24.8121753,32.2596047 24.4186369,32.0784386 24.0000216,32.0784386 C23.5814064,32.0784386 23.187868,32.2595278 22.8918655,32.588382 C21.2005021,34.4674609 18.4483651,34.4674609 16.7570018,32.588382 C16.1458776,31.9095863 15.1517444,31.9095863 14.5407588,32.588382 C12.8492568,34.4674609 10.0971891,34.4674609 8.40582573,32.588382 C7.8647363,31.9873168 7.8647363,31.0127601 8.40575646,30.411618 C8.94677661,29.8104759 9.82397741,29.8104759 10.3650668,30.411618 C10.976191,31.0904137 11.9703935,31.0904137 12.5813791,30.411618 C14.2727425,28.5324621 17.0248795,28.5324621 18.7163121,30.411618 C19.3271592,31.0904907 20.3215002,31.0904137 20.9324859,30.411618 C21.7518439,29.5014007 22.8412964,29 24.0000216,29 C25.1586776,29.000077 26.2481301,29.5014007 27.0674189,30.411695 C27.678266,31.0903368 28.672607,31.0904907 29.2835926,30.411618 C30.1029507,29.5014007 31.1924032,29 32.3511284,29 C33.5097844,29.000077 34.5992369,29.5014007 35.4185256,30.411695 C35.7144588,30.7403953 36.1079973,30.9215614 36.5266125,30.9215614 C36.9452277,30.9215614 37.3387662,30.7404722 37.6346994,30.411618 Z" id="Combined-Shape"></path>
            </g>
        </g>
    </g>
</svg>