<?xml version="1.0" encoding="UTF-8"?>
<svg width="24px" height="19px" viewBox="0 0 24 19" version="1.1" xmlns="http://www.w3.org/2000/svg" xmlns:xlink="http://www.w3.org/1999/xlink">
    <!-- Generator: sketchtool 53.2 (72643) - https://sketchapp.com -->
    <title>5543AA52-5179-4271-8598-18687F2EB158@1.00x</title>
    <desc>Created with sketchtool.</desc>
    <g id="Dashboard-x_2" stroke="none" stroke-width="1" fill="none" fill-rule="evenodd">
        <g id="Icons" transform="translate(-426.000000, -266.000000)" fill="#B6C1CD" fill-rule="nonzero">
            <g id="WeatherIcon/Wind" transform="translate(420.000000, 257.000000)">
                <path d="M20.7694083,17.3076923 C23.5685852,17.3076923 25.8462337,19.5853846 25.8462337,22.3846154 C25.8462337,25.1838462 23.5685852,27.4615385 20.7694083,27.4615385 C20.2594181,27.4615385 19.8463491,27.048 19.8463491,26.5384615 C19.8463491,26.0289231 20.2594181,25.6153846 20.7694083,25.6153846 C22.550451,25.6153846 24.0001154,24.1656923 24.0001154,22.3846154 C24.0001154,20.6035385 22.550451,19.1538462 20.7694083,19.1538462 L6.92305917,19.1533846 C6.41353051,19.1533846 6,18.7398462 6,18.2303077 C6,17.7207692 6.41353051,17.3072308 6.92305917,17.3072308 L20.7694083,17.3076923 Z M17.9997692,20.0769231 C19.2722063,20.0769231 20.3074172,21.1121538 20.3074172,22.3846154 C20.3074172,23.6570769 19.2722063,24.6923077 17.9997692,24.6923077 C17.489779,24.6923077 17.0767101,24.2787692 17.0767101,23.7692308 C17.0767101,23.2596923 17.489779,22.8461538 17.9997692,22.8461538 C18.2545336,22.8461538 18.4612988,22.6393846 18.4612988,22.3846154 C18.4612988,22.1298462 18.2545336,21.9230769 17.9997692,21.9230769 L6.9235207,21.9230769 C6.41399204,21.9230769 6.00046153,21.5095385 6.00046153,21 C6.00046153,20.4904615 6.41399204,20.0769231 6.9235207,20.0769231 L17.9997692,20.0769231 Z M27.6923521,13.6153846 C28.9647891,13.6153846 30,14.6506154 30,15.9230769 C30,17.1955385 28.9647891,18.2307692 27.6923521,18.2307692 L25.8462337,18.2307692 C25.3362435,18.2307692 24.9231746,17.8172308 24.9231746,17.3076923 C24.9231746,16.7981538 25.3362435,16.3846154 25.8462337,16.3846154 L27.6923521,16.3846154 C27.9471164,16.3846154 28.1538817,16.1778462 28.1538817,15.9230769 C28.1538817,15.6683077 27.9471164,15.4615385 27.6923521,15.4615385 C27.1828234,15.4615385 26.7692929,15.048 26.7692929,14.5384615 C26.7692929,14.0289231 27.1828234,13.6153846 27.6923521,13.6153846 Z M6.92305917,16.3841538 C6.41353051,16.3841538 6,15.9706154 6,15.4610769 C6,14.9515385 6.41353051,14.538 6.92305917,14.538 L22.153997,14.5384615 C23.1721313,14.5384615 24.0001154,13.7104615 24.0001154,12.6923077 C24.0001154,11.6741538 23.1721313,10.8461538 22.153997,10.8461538 C21.1358628,10.8461538 20.3078787,11.6741538 20.3078787,12.6923077 C20.3078787,13.2018462 19.8943482,13.6153846 19.3848195,13.6153846 C18.8748293,13.6153846 18.4617604,13.2018462 18.4617604,12.6923077 C18.4617604,10.6564615 20.11819,9 22.153997,9 C24.189804,9 25.8462337,10.6564615 25.8462337,12.6923077 C25.8462337,14.7281538 24.189804,16.3846154 22.153997,16.3846154 L6.92305917,16.3841538 Z" id="Wind"></path>
            </g>
        </g>
    </g>
</svg>