<?xml version="1.0" encoding="UTF-8"?>
<svg width="24px" height="24px" viewBox="0 0 24 24" version="1.1" xmlns="http://www.w3.org/2000/svg" xmlns:xlink="http://www.w3.org/1999/xlink">
    <!-- Generator: sketchtool 53.2 (72643) - https://sketchapp.com -->
    <title>C05DC4A6-A860-44BD-B66F-2FE96D431345@1.00x</title>
    <desc>Created with sketchtool.</desc>
    <g id="Dashboard-x_2" stroke="none" stroke-width="1" fill="none" fill-rule="evenodd">
        <g id="Icons" transform="translate(-272.000000, -263.000000)" fill="#FDB10C" fill-rule="nonzero">
            <g id="WeatherIcon/Sun" transform="translate(266.000000, 257.000000)">
                <path d="M28.999875,18.999625 L27.0006251,18.999625 C26.448056,18.999625 26.0005001,18.552069 26.0005001,18 C26.0005001,17.447931 26.448056,16.999875 27.0006251,16.999875 L28.999875,16.999875 C29.5524441,16.999875 30,17.447931 30,18 C30,18.552069 29.5529441,18.999625 28.999875,18.999625 Z M25.071884,12.3432929 C24.6813352,12.7338417 24.0472559,12.7338417 23.6577072,12.3432929 C23.2671584,11.9527441 23.2671584,11.319665 23.6577072,10.9291161 L25.071884,9.51493937 C25.4614327,9.12439055 26.0955119,9.12439055 26.4860608,9.51493937 C26.8756095,9.90548819 26.8756095,10.5385673 26.4860608,10.9291161 L25.071884,12.3432929 Z M18.0005001,23.99975 C14.6865858,23.99975 11.99975,21.3134142 11.99975,18 C11.99975,14.6860858 14.6860858,11.99975 18.0005001,11.99975 C21.3144143,11.99975 24.00025,14.6860858 24.00025,18 C24.00025,21.3134142 21.3144143,23.99975 18.0005001,23.99975 Z M18.0005001,14 C15.7912239,14 14,15.7907238 14,18 C14,20.2087761 15.791724,22 18.0005001,22 C20.2092762,22 22,20.2087761 22,18 C22,15.7907238 20.2097762,14 18.0005001,14 Z M18.0005001,10 C17.447931,10 17.000375,9.55194399 17.000375,8.99987498 L17.000375,7.00012502 C17.000375,6.44805601 17.447931,6 18.0005001,6 C18.5525691,6 19.0006251,6.44805601 19.0006251,7.00012502 L19.0006251,8.99987498 C19.0006251,9.55194399 18.552069,10 18.0005001,10 Z M10.9291161,12.3432929 L9.51493937,10.9291161 C9.12439055,10.5385673 9.12439055,9.90548819 9.51493937,9.51493937 C9.90548819,9.12439055 10.5385673,9.12439055 10.9291161,9.51493937 L12.3432929,10.9291161 C12.7338417,11.319665 12.7338417,11.9527441 12.3432929,12.3432929 C11.9527441,12.7338417 11.319665,12.7338417 10.9291161,12.3432929 Z M10,18 C10,18.552069 9.55194399,18.999625 8.99987498,18.999625 L6.99962495,18.999625 C6.44755594,18.999625 6,18.552069 6,18 C6,17.447931 6.44805601,16.999875 6.99962495,16.999875 L8.99987498,16.999875 C9.55244406,16.999875 10,17.447931 10,18 Z M10.9291161,23.6567071 C11.319665,23.2666583 11.9527441,23.2666583 12.3432929,23.6567071 C12.7338417,24.0472559 12.7338417,24.6808351 12.3432929,25.0708839 L10.9291161,26.4850606 C10.5385673,26.8756095 9.90548819,26.8756095 9.51493937,26.4850606 C9.12439055,26.0950119 9.12439055,25.4614327 9.51493937,25.0708839 L10.9291161,23.6567071 Z M18.0005001,26 C18.5525691,26 19.0006251,26.4475559 19.0006251,26.999625 L19.0006251,28.999875 C19.0006251,29.551944 18.5525691,30 18.0005001,30 C17.447931,30 17.000375,29.551944 17.000375,28.999875 L17.000375,26.999625 C17.000375,26.4475559 17.447931,26 18.0005001,26 Z M25.071884,23.6567071 L26.4860608,25.0708839 C26.8756095,25.4614327 26.8756095,26.0950119 26.4860608,26.4850606 C26.0955119,26.8756095 25.4614327,26.8756095 25.071884,26.4850606 L23.6577072,25.0708839 C23.2671584,24.6808351 23.2671584,24.0472559 23.6577072,23.6567071 C24.0472559,23.2661583 24.6808351,23.2661583 25.071884,23.6567071 Z" id="Shape"></path>
            </g>
        </g>
    </g>
</svg>