<?xml version="1.0" encoding="UTF-8"?>
<svg width="31px" height="24px" viewBox="0 0 31 24" version="1.1" xmlns="http://www.w3.org/2000/svg" xmlns:xlink="http://www.w3.org/1999/xlink">
    <!-- Generator: sketchtool 53.2 (72643) - https://sketchapp.com -->
    <title>08B1AF79-E27D-4DFC-8EAA-66B1884E1696@1.00x</title>
    <desc>Created with sketchtool.</desc>
    <g id="Dashboard-x_2" stroke="none" stroke-width="1" fill="none" fill-rule="evenodd">
        <g id="Icons" transform="translate(-320.000000, -263.000000)">
            <g id="WeatherIcon/SunCloud" transform="translate(317.000000, 257.000000)">
                <g id="Cloudy-Copy" transform="translate(3.000000, 6.000000)">
                    <path d="M29.8653706,13.0836543 L27.8427377,13.0836543 C27.2837058,13.0836543 26.8309153,12.6332054 26.8309153,12.0775678 C26.8309153,11.5219302 27.2837058,11.070978 27.8427377,11.070978 L29.8653706,11.070978 C30.4244025,11.070978 30.877193,11.5219302 30.877193,12.0775678 C30.877193,12.6332054 30.4249084,13.0836543 29.8653706,13.0836543 Z M25.8914382,6.38429585 C25.4963215,6.77736917 24.8548262,6.77736917 24.4607213,6.38429585 C24.0656047,5.99122253 24.0656047,5.35405118 24.4607213,4.96097786 L25.8914382,3.53765988 C26.285543,3.14458656 26.9270384,3.14458656 27.322155,3.53765988 C27.7162599,3.93073319 27.7162599,4.56790454 27.322155,4.96097786 L25.8914382,6.38429585 Z M18.737348,18.1161 C15.3846745,18.1161 12.6664137,15.4123998 12.6664137,12.0775678 C12.6664137,8.74223247 15.3841686,6.03853225 18.737348,6.03853225 C22.0900215,6.03853225 24.8072705,8.74223247 24.8072705,12.0775678 C24.8072705,15.4123998 22.0900215,18.1161 18.737348,18.1161 Z M18.737348,8.05171186 C16.5022324,8.05171186 14.6900585,9.85401091 14.6900585,12.0775678 C14.6900585,14.3006214 16.5027383,16.1034237 18.737348,16.1034237 C20.9719578,16.1034237 22.7836257,14.3006214 22.7836257,12.0775678 C22.7836257,9.85401091 20.9724637,8.05171186 18.737348,8.05171186 Z M18.737348,4.02585593 C18.1783161,4.02585593 17.7255256,3.5749037 17.7255256,3.01926612 L17.7255256,1.00658981 C17.7255256,0.450952233 18.1783161,0 18.737348,0 C19.295874,0 19.7491704,0.450952233 19.7491704,1.00658981 L19.7491704,3.01926612 C19.7491704,3.5749037 19.2953681,4.02585593 18.737348,4.02585593 Z M11.5832578,6.38429585 L10.152541,4.96097786 C9.75742436,4.56790454 9.75742436,3.93073319 10.152541,3.53765988 C10.5476576,3.14458656 11.1881412,3.14458656 11.5832578,3.53765988 L13.0139747,4.96097786 C13.4090913,5.35405118 13.4090913,5.99122253 13.0139747,6.38429585 C12.6188581,6.77736917 11.9783745,6.77736917 11.5832578,6.38429585 Z M10.6432749,12.0775678 C10.6432749,12.6332054 10.1899784,13.0836543 9.63145247,13.0836543 L7.6078077,13.0836543 C7.04928175,13.0836543 6.59649123,12.6332054 6.59649123,12.0775678 C6.59649123,11.5219302 7.04978766,11.070978 7.6078077,11.070978 L9.63145247,11.070978 C10.1904843,11.070978 10.6432749,11.5219302 10.6432749,12.0775678 Z M11.5832578,17.7708397 C11.9783745,17.3782697 12.6188581,17.3782697 13.0139747,17.7708397 C13.4090913,18.1639131 13.4090913,18.8015877 13.0139747,19.1941577 L11.5832578,20.6174757 C11.1881412,21.010549 10.5476576,21.010549 10.152541,20.6174757 C9.75742436,20.2249057 9.75742436,19.587231 10.152541,19.1941577 L11.5832578,17.7708397 Z M25.8914382,17.7708397 L27.322155,19.1941577 C27.7162599,19.587231 27.7162599,20.2249057 27.322155,20.6174757 C26.9270384,21.010549 26.285543,21.010549 25.8914382,20.6174757 L24.4607213,19.1941577 C24.0656047,18.8015877 24.0656047,18.1639131 24.4607213,17.7708397 C24.8548262,17.3777664 25.4958156,17.3777664 25.8914382,17.7708397 Z" id="Shape" fill="#FDB10C" fill-rule="nonzero"></path>
                    <g id="Group" transform="translate(0.000000, 7.719298)" fill-rule="nonzero">
                        <path d="M8.06278788,16.2786667 C3.61006061,16.2786667 -5.04485342e-13,12.6348421 -5.04485342e-13,8.13933333 C-5.04485342e-13,3.64382456 3.61006061,4.26325641e-14 8.06278788,4.26325641e-14 C11.0887273,4.26325641e-14 13.7220606,1.68505263 15.1009697,4.17345614 C15.4356172,4.11596491 15.7753046,4.06915789 16.1255758,4.06915789 C19.4654992,4.06915789 22.1729187,6.80278947 22.1729187,10.1744211 C22.1729187,13.5450351 19.4654992,16.2786667 16.1255758,16.2786667 C14.7270112,16.2786667 9.67453907,16.2786667 8.06278788,16.2786667 Z" id="Path" fill="#B6C1CD"></path>
                        <path d="M16.1255758,14.2435789 C18.3521914,14.2435789 20.1574737,12.4211579 20.1574737,10.1744211 C20.1574737,7.92666667 18.3521914,6.10424561 16.1255758,6.10424561 C15.3191962,6.10424561 14.5722871,6.34896491 13.941799,6.76107018 C13.3213907,4.0564386 10.9309793,2.03457895 8.06278788,2.03457895 C4.72336842,2.03457895 2.01594896,4.76770175 2.01594896,8.13933333 C2.01594896,11.5104561 4.72336842,14.2435789 8.06278788,14.2435789 C9.88570973,14.2435789 14.6040383,14.2435789 16.1255758,14.2435789 Z" id="Path" fill="#FFFFFF"></path>
                    </g>
                </g>
            </g>
        </g>
    </g>
</svg>