<?xml version="1.0" encoding="UTF-8"?>
<svg width="24px" height="15px" viewBox="0 0 24 15" version="1.1" xmlns="http://www.w3.org/2000/svg" xmlns:xlink="http://www.w3.org/1999/xlink">
    <!-- Generator: sketchtool 53.2 (72643) - https://sketchapp.com -->
    <title>B20674F4-E269-4148-AEDD-801582D8D1F9@1.00x</title>
    <desc>Created with sketchtool.</desc>
    <g id="Dashboard-x_2" stroke="none" stroke-width="1" fill="none" fill-rule="evenodd">
        <g id="Icons" transform="translate(-375.000000, -268.000000)" fill="#B6C1CD" fill-rule="nonzero">
            <g id="WeatherIcon/Swell" transform="translate(369.000000, 257.000000)">
                <path d="M10.9054864,13.6912865 C9.63685445,15.1005957 7.57279474,15.1005957 6.30437062,13.6912865 C5.89855179,13.2404876 5.89855179,12.5095701 6.30431866,12.0587135 C6.71008553,11.6078569 7.36798898,11.6078569 7.77380781,12.0587135 C8.23215292,12.5678103 8.977808,12.5678103 9.43604921,12.0587135 C10.7045772,10.6493466 12.7686889,10.6493466 14.0372689,12.0587135 C14.4954062,12.5678103 15.2411652,12.567868 15.6994064,12.0587135 C16.3139276,11.3760505 17.1310205,11 18.0000682,11 C18.8690639,11.0000577 19.6861568,11.3760505 20.3006261,12.0587712 C20.7587634,12.5677526 21.5045224,12.567868 21.9627636,12.0587135 C22.5772848,11.3760505 23.3943777,11 24.2634254,11 C25.1324211,11.0000577 25.949514,11.3760505 26.5639833,12.0587712 C26.7859341,12.3052965 27.0810892,12.441171 27.395052,12.441171 C27.7090148,12.441171 28.0041699,12.3053542 28.2261208,12.0587135 C28.6318876,11.6078569 29.2897911,11.6078569 29.6956099,12.0587135 C30.1014287,12.5095124 30.1014807,13.2404299 29.6956619,13.6912865 C29.0811407,14.3740072 28.2641517,14.75 27.395052,14.75 C26.5260563,14.75 25.7090153,14.3740072 25.0944941,13.6912865 C24.8724913,13.4447035 24.5773362,13.308829 24.2633734,13.308829 C23.9494107,13.308829 23.6542555,13.4446458 23.4322527,13.6912865 C22.1637247,15.1005957 20.099613,15.1005957 18.831085,13.6912865 C18.6090822,13.4447035 18.313927,13.308829 17.9999643,13.308829 C17.6860015,13.308829 17.3908464,13.4446458 17.1688436,13.6912865 C15.9003155,15.1005957 13.8362039,15.1005957 12.5676758,13.6912865 C12.1093307,13.1821897 11.3637276,13.1821897 10.9054864,13.6912865 Z M10.9055691,18.9412865 C9.63694261,20.3505957 7.57289184,20.3505957 6.3043693,18.9412865 C5.89855223,18.4904876 5.89855223,17.7595701 6.30431734,17.3087135 C6.71008246,16.8578569 7.36798306,16.8578569 7.77380013,17.3087135 C8.23214326,17.8178103 8.97779511,17.8178103 9.43603433,17.3087135 C10.7045569,15.8993466 12.7686596,15.8993466 14.0372341,17.3087135 C14.4953694,17.8178103 15.2411252,17.817868 15.6993644,17.3087135 C16.3138829,16.6260505 17.1309723,16.25 18.0000162,16.25 C18.8690082,16.2500577 19.6860976,16.6260505 20.3005642,17.3087712 C20.7586995,17.8177526 21.5044552,17.817868 21.9626945,17.3087135 C22.577213,16.6260505 23.3943024,16.25 24.2633463,16.25 C25.1323383,16.2500577 25.9494276,16.6260505 26.5638942,17.3087712 C26.7858441,17.5552965 27.080998,17.691171 27.3949594,17.691171 C27.7089208,17.691171 28.0040746,17.5553542 28.2260245,17.3087135 C28.6317896,16.8578569 29.2896902,16.8578569 29.6956112,17.3087135 C30.1014283,17.7595124 30.1014802,18.4904299 29.6956632,18.9412865 C29.0811446,19.6240072 28.2641592,20 27.3950633,20 C26.5260713,20 25.7090339,19.6240072 25.0945154,18.9412865 C24.8725135,18.6947035 24.5773597,18.558829 24.2633983,18.558829 C23.9494368,18.558829 23.654283,18.6946458 23.4322812,18.9412865 C22.1637586,20.3505957 20.0996559,20.3505957 18.8311333,18.9412865 C18.6091315,18.6947035 18.3139776,18.558829 18.0000162,18.558829 C17.6860548,18.558829 17.390901,18.6946458 17.1688991,18.9412865 C15.9003766,20.3505957 13.8362739,20.3505957 12.5677513,18.9412865 C12.1094082,18.4321897 11.3638083,18.4321897 10.9055691,18.9412865 Z M28.2260245,22.5587135 C28.6317896,22.1078569 29.2896902,22.1078569 29.6956112,22.5587135 C30.1014283,23.0095124 30.1014802,23.7404299 29.6956632,24.1912865 C29.0811446,24.8740072 28.2641592,25.25 27.3950633,25.25 C26.5260713,25.25 25.7090339,24.8740072 25.0945154,24.1912865 C24.8725135,23.9447035 24.5773597,23.808829 24.2633983,23.808829 C23.9494368,23.808829 23.654283,23.9446458 23.4322812,24.1912865 C22.1637586,25.6005957 20.0996559,25.6005957 18.8311333,24.1912865 C18.6091315,23.9447035 18.3139776,23.808829 18.0000162,23.808829 C17.6860548,23.808829 17.390901,23.9446458 17.1688991,24.1912865 C15.9003766,25.6005957 13.8362739,25.6005957 12.5677513,24.1912865 C12.1094082,23.6821897 11.3638083,23.6821897 10.9055691,24.1912865 C9.63694261,25.6005957 7.57289184,25.6005957 6.3043693,24.1912865 C5.89855223,23.7404876 5.89855223,23.0095701 6.30431734,22.5587135 C6.71008246,22.1078569 7.36798306,22.1078569 7.77380013,22.5587135 C8.23214326,23.0678103 8.97779511,23.0678103 9.43603433,22.5587135 C10.7045569,21.1493466 12.7686596,21.1493466 14.0372341,22.5587135 C14.4953694,23.067868 15.2411252,23.0678103 15.6993644,22.5587135 C16.3138829,21.8760505 17.1309723,21.5 18.0000162,21.5 C18.8690082,21.5000577 19.6860976,21.8760505 20.3005642,22.5587712 C20.7586995,23.0677526 21.5044552,23.067868 21.9626945,22.5587135 C22.577213,21.8760505 23.3943024,21.5 24.2633463,21.5 C25.1323383,21.5000577 25.9494276,21.8760505 26.5638942,22.5587712 C26.7858441,22.8052965 27.080998,22.941171 27.3949594,22.941171 C27.7089208,22.941171 28.0040746,22.8053542 28.2260245,22.5587135 Z" id="Combined-Shape"></path>
            </g>
        </g>
    </g>
</svg>