<?xml version="1.0" encoding="UTF-8"?>
<svg width="24px" height="18px" viewBox="0 0 24 18" version="1.1" xmlns="http://www.w3.org/2000/svg" xmlns:xlink="http://www.w3.org/1999/xlink">
    <!-- Generator: sketchtool 53.2 (72643) - https://sketchapp.com -->
    <title>E45779E9-8A45-4157-9365-13FF5DC0C811@1.00x</title>
    <desc>Created with sketchtool.</desc>
    <g id="Dashboard-x_2" stroke="none" stroke-width="1" fill="none" fill-rule="evenodd">
        <g id="Icons" transform="translate(-117.000000, -266.000000)" fill="#B6C1CD" fill-rule="nonzero">
            <g id="WeatherIcon/Cloud" transform="translate(111.000000, 257.000000)">
                <path d="M14.7271735,26.4543471 C9.90753495,26.4543471 6,22.5473577 6,17.7271735 C6,12.9069894 9.90753495,9 14.7271735,9 C18.0024548,9 20.8527787,10.8067508 22.345312,13.4748721 C22.7075349,13.4132288 23.0752131,13.3630413 23.4543471,13.3630413 C27.0694852,13.3630413 30,16.2941016 30,19.9092397 C30,23.5232867 27.0694852,26.4543471 23.4543471,26.4543471 C21.9405387,26.4543471 16.4717354,26.4543471 14.7271735,26.4543471 Z M23.4543471,24.2722809 C25.8644391,24.2722809 27.8184794,22.3182407 27.8184794,19.9092397 C27.8184794,17.4991476 25.8644391,15.5451074 23.4543471,15.5451074 C22.5815206,15.5451074 21.7730651,15.8075009 21.0906239,16.2493692 C20.4190931,13.3494033 17.8317081,11.1815206 14.7271735,11.1815206 C11.112581,11.1815206 8.18206614,14.1120355 8.18206614,17.7271735 C8.18206614,21.3417661 11.112581,24.2722809 14.7271735,24.2722809 C16.7003069,24.2722809 21.8074327,24.2722809 23.4543471,24.2722809 Z" id="Shape"></path>
            </g>
        </g>
    </g>
</svg>