<?xml version="1.0" encoding="UTF-8"?>
<svg width="25px" height="24px" viewBox="0 0 25 24" version="1.1" xmlns="http://www.w3.org/2000/svg" xmlns:xlink="http://www.w3.org/1999/xlink">
    <!-- Generator: sketchtool 53.2 (72643) - https://sketchapp.com -->
    <title>C652919E-4214-4E07-BD02-E48F9C5867E2@1.00x</title>
    <desc>Created with sketchtool.</desc>
    <g id="Dashboard-x_2" stroke="none" stroke-width="1" fill="none" fill-rule="evenodd">
        <g id="Icons" transform="translate(-220.000000, -263.000000)" fill-rule="nonzero">
            <g id="WeatherIcon/Rain" transform="translate(214.000000, 257.000000)">
                <path d="M23.9689091,10.7138182 C23.5892727,10.7138182 23.2221818,10.764 22.86,10.8256364 C21.3676364,8.15727273 18.5176364,6.35127273 15.2427273,6.35127273 C10.4236364,6.35127273 6.51654545,10.2578182 6.51654545,15.0769091 C6.51654545,18.3452727 8.31654545,21.1898182 10.9767273,22.6843636 C11.1272727,21.996 11.4632727,21.3398182 11.9983636,20.8052727 L12.0294545,20.7741818 C10.0418182,19.65 8.69890909,17.5216364 8.69890909,15.0769091 C8.69890909,11.4627273 11.6290909,8.53254545 15.2432727,8.53254545 C18.3474545,8.53254545 20.934,10.7001818 21.606,13.5998182 C22.2878182,13.158 23.0967273,12.8956364 23.9694545,12.8956364 C26.3792727,12.8956364 28.3325455,14.8489091 28.3325455,17.2587273 C28.3325455,19.1367273 27.1423636,20.7338182 25.4770909,21.3485455 C25.9069091,21.9736364 26.1283636,22.6963636 26.1436364,23.4250909 C28.6881818,22.5278182 30.5149091,20.1098182 30.5149091,17.2587273 C30.5138182,13.644 27.5836364,10.7138182 23.9689091,10.7138182 Z" id="Path" fill="#B6C1CD"></path>
                <path d="M14.6972727,21.1909091 L13.5403636,22.3478182 C12.9016364,22.9870909 12.9016364,24.0223636 13.5403636,24.6616364 C14.1796364,25.3009091 15.2154545,25.3009091 15.8541818,24.6616364 C16.4934545,24.0223636 16.4934545,22.9870909 15.8541818,22.3478182 L14.6972727,21.1909091 Z" id="Path" fill="#4EB7F5"></path>
                <path d="M18.5154545,25.5534545 L17.3585455,26.7103636 C16.7192727,27.3496364 16.7192727,28.386 17.3585455,29.0241818 C17.9972727,29.6634545 19.0330909,29.6634545 19.6718182,29.0241818 C20.3110909,28.386 20.3110909,27.3496364 19.6718182,26.7103636 L18.5154545,25.5534545 Z" id="Path" fill="#4EB7F5"></path>
                <path d="M22.3330909,21.1909091 L21.1761818,22.3478182 C20.5369091,22.9870909 20.5369091,24.0223636 21.1761818,24.6616364 C21.8149091,25.3009091 22.8507273,25.3009091 23.49,24.6616364 C24.1287273,24.0223636 24.1287273,22.9870909 23.49,22.3478182 L22.3330909,21.1909091 Z" id="Path" fill="#4EB7F5"></path>
            </g>
        </g>
    </g>
</svg>